<svg xmlns="http://www.w3.org/2000/svg" height="40" viewBox="0 -960 960 960" width="40"><path d="M192.997-409.001q-28.997 0-49.997-20.835t-21-50.093Q122-510 142.884-530.5q20.884-20.499 50.21-20.499 28.839 0 50.372 20.429t21.533 49.999q0 29.571-21.503 50.57-21.503 21-50.499 21Zm287.574 0q-29.571 0-50.57-20.835-21-20.835-21-50.093 0-30.071 20.835-50.571 20.835-20.499 50.093-20.499 30.071 0 50.571 20.429 20.499 20.429 20.499 49.999 0 29.571-20.429 50.57-20.429 21-49.999 21Zm286.453 0q-29.787 0-50.905-20.835-21.118-20.835-21.118-50.093 0-30.071 21.212-50.571 21.213-20.499 51-20.499t50.62 20.429q20.833 20.429 20.833 49.999 0 29.571-20.927 50.57-20.928 21-50.715 21Z"/></svg>