<svg xmlns="http://www.w3.org/2000/svg" height="40" viewBox="0 -960 960 960" width="40"><path d="m357.667-52-20-135.667q-10.333-3.333-23-10.667Q302-205.667 293-212.667l-126.334 57-124-217.999L155.668-457q-.667-5-1-11.5-.333-6.5-.333-11.5t.333-11.5q.333-6.5 1-11.5l-113-84 123.999-216L295-747q8.333-6.333 20.333-13.166 12.001-6.834 22.334-10.167l20-138.334h244.666l20 137.667q10.333 4 23 10.5T667-747l127-56 123.333 216-114 82.666q.667 5.667 1.333 12.167.667 6.5.667 12.167t-.833 11.834q-.834 6.166-1.5 11.833l114 82.667-124.333 217.999-127-57q-9 7-20.667 14.333-11.667 7.334-22.667 10.667L602.333-52H357.667Zm120.666-294.667q55.334 0 94.334-39 38.999-39 38.999-94.333t-38.999-94.333q-39-39-94.334-39-55.333 0-94.333 39T345-480q0 55.333 39 94.333t94.333 39Z"/></svg>